<svg xmlns="http://www.w3.org/2000/svg" viewBox="0 0 225 195"><path fill="#085FA9" d="M168.8 0H56.3L0 97.5 56.3 195h112.5L225 97.5z"></path><path fill="#FFF" d="M189 136.6l22.5-39.1L162 11.7H63L13.5 97.5 36 136.6z"></path><g fill="#585758"><path d="M52.4 79a78 78 0 0112.5-.8c5.5 0 9.4 1 12 3 2.6 2 4.4 5.3 4.4 9.2 0 3.8-1.3 7.1-3.7 9.3-3 2.7-7.5 4-12.6 4l-2.5-.2v13h-10V79zm10 16.8h2.4c4 0 6.4-2 6.4-5.2 0-2.8-1.9-4.7-5.7-4.7-1.5 0-2.5 0-3 .2v9.7zM85.5 98c0-4.3 0-7-.2-9.3H94l.4 5h.2c1.5-4.2 5-5.6 7.4-5.6.9 0 1.3 0 2 .2v9.5a11 11 0 00-2.6-.3c-3 0-5 1.3-5.6 3.5v15.4H85.4V98.1zM121 117c-8.2 0-14.6-5.2-14.6-14.2 0-8.8 5.8-14.7 15.2-14.7 8.7 0 14.4 5.9 14.4 14.2 0 10-7.2 14.7-14.9 14.7zm.4-7.1c2.7 0 4.2-2.9 4.2-7.3 0-3.8-1.3-7.3-4.2-7.3-3.4 0-4.5 3.6-4.5 7.3 0 4.1 1.3 7.3 4.4 7.3zM142.1 116.4V96.2h-3.5v-7.5h3.5v-.9c0-3 1-6.8 3.6-9a12 12 0 018-3c2 0 3.4.3 4.7.6l-.1 7.7-2.6-.2c-2.3 0-3.5 1.5-3.5 3.5v1.4h5v7.4h-4.9v20.2h-10.2zM166.4 85.9c-3.2 0-5.2-2.2-5.2-4.8 0-2.8 2-4.8 5.2-4.8s5.1 2 5.2 4.8c0 2.6-2 4.8-5.2 4.8zm-5.1 30.5V88.7h10.2v27.7h-10.2z"></path></g><path fill="#085FA9" d="M60.9 58.3c-2 0-4 0-5.3-.6a3 3 0 01-1.5-1.2c-.4-.6-.5-1.4-.5-2.4 0-.8 0-1.7.3-2.7l1.3-5.8c.3-1.2.7-2 1.1-2.9.9-1.3 2-2.1 3.5-2.7 1.3-.4 3-.6 5.4-.6 1.3 0 2.3.1 3.2.3 1 .2 1.8.6 2.3 1 .4.4.7.9.8 1.4v.8c0 .7 0 1.5-.2 2v.3h-4.7V45v-.5c0-.4-.1-.7-.5-1a3 3 0 00-1.1-.2 11.1 11.1 0 00-3.1.1l-1 .5a3 3 0 00-1 1.3 12 12 0 00-.5 2l-.6 3a12 12 0 00-.4 2.3c0 .3 0 .6.2.9.2.4.5.7 1 .9l1.9.2h1.4c.7-.1 1.2-.4 1.6-.7.5-.5.7-1 1-2v-.3h4.6a32.4 32.4 0 01-.9 3.1c-.4 1-1 1.7-2 2.4a7 7 0 01-2.8 1.1c-1 .2-2 .2-3 .2h-.5zM112.4 58.3c-2 0-4 0-5.3-.6a3 3 0 01-1.5-1.2c-.3-.6-.5-1.4-.5-2.4 0-.8 0-1.7.3-2.7l1.3-5.8c.3-1.2.7-2 1.1-2.9.9-1.3 2-2.1 3.6-2.7 1.3-.4 2.9-.6 5.3-.6 1.3 0 2.3.1 3.2.3 1 .2 1.8.6 2.3 1 .4.4.7.9.8 1.4v.8c0 .7 0 1.5-.2 2v.3H118V45v-.5c0-.4-.1-.7-.5-1a3 3 0 00-1.1-.2 11.1 11.1 0 00-3.1.1l-1 .5a3 3 0 00-1 1.3 12 12 0 00-.5 2l-.6 3a12 12 0 00-.4 2.3c0 .3 0 .6.2.9.2.4.5.7 1 .9l1.9.2h1.4c.7-.1 1.3-.4 1.6-.7.5-.5.8-1 1-2v-.3h4.6a32.2 32.2 0 01-.9 3.1c-.4 1-1 1.7-2 2.4A7 7 0 01116 58c-1 .2-2 .2-3 .2h-.5zM102.4 58.2H89.1l3.7-17.7c0-.3.2-.5.4-.7l.8-.2h11.3c.3 0 .5 0 .6.2l.2.4v.2l-.7 2.7h-8.7l-.7 3.7h8.2l-.8 3.4h-8.2l-1 4.4h9l-.8 3.6zM126.4 58.2H122l3.7-17.6c0-.4.2-.7.4-.8l.7-.2h2.6c.3 0 .5 0 .6.2.2 0 .2.2.2.4v.2l-3.8 17.8zM138.7 58.2H133l-4.2-9.7 7.2-7.8a5 5 0 011-.9l.8-.2h3.6l.4.1v.2l-.1.4-7.8 8.3 4.7 9.6zM82.3 58.2l1.6-7.6h-7.4L75 58.2h-4.4l3.7-17.6c.1-.6.3-.7.5-.8.2-.2.5-.2.8-.2H78s.3 0 .4.2c.1 0 .2 0 .2.2l.1.3v.1l-1.4 6.4h7.4l1.3-6.2c.1-.6.3-.7.5-.8.2-.2.5-.2.9-.2h2.4s.3 0 .5.2l.1.2.1.3v.1l-3.8 17.7h-4.4zM151.8 43.2c.4.1.7.3.8.6l.1.6v1l-.4 1.2c-.2.4-.4.7-.7.9-.6.5-1.6.8-3.3 1.2-2.2.4-3.7.9-4.8 1.4-1.1.5-1.7 1.2-2.2 2.2-.3.7-.6 1.5-.8 2.6l-.6 3.2h14.4l.7-3.2h-10l.2-1c.2-.5.4-.7.7-1l1-.4 3.7-.8c2-.5 3.4-1.1 4.4-2 1-1 1.6-2.4 2-4.4l.3-2.2c0-.8-.2-1.4-.4-1.9-.3-.5-.7-.8-1.3-1.1a11 11 0 00-4.5-.6c-2.4 0-4.2.2-5.6 1-1.4 1-2.4 2.5-3 5v.7h4.3l.2-.8c.1-.7.3-1.2.6-1.6.3-.4.7-.6 1.3-.6h2.9zM164 41.4a6605.5 6605.5 0 00-7.5 8l-.4 1.5-.4 2.3v.3c0 .3.1.6.3.7.2.2.4.2.6.2h8.6l-.8 3.7 4.5-.4.7-3.3h1.6l.7-3.3h-1.6l1.6-7.7c.6-3-.7-4-3.5-4-.8 0-2.4 0-4.4 2zm1.9 9.8h-6.5l7.7-8h.4l-1.6 8zM154 68.5c-3 0-5.7-.8-8.1-2.2a14.2 14.2 0 01-4.3-4.1l-.9 2.2a.5.5 0 01-.9-.2v-4.3a.5.5 0 01.5-.4h4.3a.5.5 0 01.5.4c0 .2-.2.4-.3.5l-2.2.8a16.8 16.8 0 0012.5 4.2c2.3-.2 4.6-.7 6.6-1.6a17 17 0 004.6-2.8l-2.2-.6a.5.5 0 01-.3-.5c0-.2.2-.4.4-.4l4.3-.4.3.1.2.3.3 4.2a.5.5 0 01-.4.5.5.5 0 01-.4-.3l-1-2a17.2 17.2 0 01-12 6.5h-1.6z"></path><g fill="#FFF"><path d="M52.9 173.5a5 5 0 002.2.7c.8 0 1.1-.3 1.1-.7s-.3-.7-1.2-1c-1.8-.6-2.4-1.5-2.4-2.5 0-1.5 1.3-2.7 3.4-2.7 1 0 1.8.2 2.3.5l-.4 1.8c-.4-.2-1.1-.5-1.8-.5s-1 .2-1 .7c0 .4.3.6 1.3 1 1.6.5 2.3 1.3 2.3 2.5 0 1.5-1.2 2.7-3.6 2.7-1.1 0-2-.3-2.7-.6l.5-1.9zM62.3 172.5c0 1 1.1 1.6 2.3 1.6 1 0 1.6-.2 2.3-.4l.4 1.8a8 8 0 01-3 .5c-2.9 0-4.5-1.6-4.5-4.3 0-2 1.3-4.4 4.2-4.4 2.7 0 3.7 2 3.7 4.1v1h-5.4zm3-1.8c0-.6-.2-1.7-1.4-1.7-1.1 0-1.6 1-1.6 1.7h3zM70.6 166.4c-.8 0-1.4-.5-1.4-1.3 0-.7.6-1.3 1.4-1.3s1.4.6 1.4 1.3c0 .8-.6 1.3-1.4 1.3zm-1.3 9.4v-8.3h2.6v8.3h-2.6zM76.9 165.2v2.3h1.8v1.9H77v3c0 1 .2 1.5 1 1.5l.8-.1v2l-1.7.2c-.8 0-1.5-.3-2-.7-.4-.5-.7-1.3-.7-2.5v-3.4h-1v-2h1V166l2.6-.7z"></path></g><g fill="#FFF"><path d="M83.1 176v-4l3.6-3.2c6-5.3 8.9-8.4 9-11.6 0-2.2-1.4-4-4.6-4a10 10 0 00-5.8 2.3l-1.8-4.6c2-1.6 5.2-2.9 9-2.9 6.1 0 9.6 3.7 9.6 8.6 0 4.6-3.4 8.3-7.3 11.9l-2.6 2v.1h10.4v5.3H83zM126 162c0 8.6-3.3 14.4-10.3 14.4-7.1 0-10.3-6.4-10.3-14.1 0-8 3.4-14.3 10.5-14.3 7.3 0 10.2 6.6 10.2 14zm-14.1.3c0 6.2 1.4 9.2 4 9.2s3.8-3 3.8-9.3c0-6.1-1.3-9.3-4-9.3-2.3 0-3.9 3-3.8 9.4zM128 176v-4l3.5-3.2c6-5.3 8.9-8.4 9-11.6 0-2.2-1.4-4-4.5-4a10 10 0 00-5.9 2.3l-1.8-4.6c2-1.6 5.3-2.9 9-2.9 6.2 0 9.6 3.7 9.6 8.6 0 4.6-3.3 8.3-7.3 11.9l-2.5 2v.1h10.3v5.3H128zM161.8 176v-6.6h-12.1v-4.2l10.3-16.7h7.9v16h3.3v4.9h-3.3v6.5h-6.1zm0-11.4v-6.1c0-1.6 0-3.3.2-5.1h-.2l-2.5 5.1-3.7 6h6.2z"></path></g></svg>